<?xml version="1.0" standalone="no"?>
<svg viewBox="0 0 200 200" xmlns="http://www.w3.org/2000/svg">
  <path fill="#FF0066" d="M31.7,-55.7C42,-48.9,52,-42.3,58.3,-33.1C64.6,-23.8,67.3,-11.9,69.4,1.2C71.4,14.2,72.7,28.5,67.9,40.5C63.2,52.5,52.5,62.4,40.1,68.1C27.8,73.9,13.9,75.5,1.4,73C-11,70.5,-22,63.9,-35.8,58.9C-49.6,54,-66.1,50.9,-75.7,41.3C-85.3,31.8,-88,15.9,-85.2,1.6C-82.5,-12.7,-74.3,-25.5,-67,-38.9C-59.6,-52.3,-53.1,-66.4,-42,-72.8C-31,-79.1,-15.5,-77.6,-2.4,-73.5C10.7,-69.3,21.4,-62.4,31.7,-55.7Z" transform="translate(100 100)" />
</svg>
