<?xml version="1.0" encoding="utf-8"?>
<!-- Generator: Adobe Illustrator 25.1.0, SVG Export Plug-In . SVG Version: 6.00 Build 0)  -->
<svg version="1.1" id="Layer_1" xmlns="http://www.w3.org/2000/svg" xmlns:xlink="http://www.w3.org/1999/xlink" x="0px" y="0px"
	 viewBox="0 0 384 512" style="enable-background:new 0 0 384 512;" xml:space="preserve">
<style type="text/css">
	.st0{fill:#FF6A3E;}
</style>
<path class="st0" d="M50.8,452.1l-31.6,25.3c-2.1,1.7-4.7,2.6-7.4,2.6C5.3,480,0,474.7,0,468.2V192C0,86,86,0,192,0s192,86,192,192
	v276.2c0,6.5-5.3,11.8-11.8,11.8c-2.7,0-5.3-0.9-7.4-2.6l-31.6-25.3c-3.3-2.7-7.5-4.1-11.8-4.1c-5.9,0-11.5,2.8-15,7.5l-37.6,50.1
	c-3,4-7.8,6.4-12.8,6.4s-9.8-2.4-12.8-6.4l-38.4-51.2c-3-4-7.8-6.4-12.8-6.4s-9.8,2.4-12.8,6.4l-38.4,51.2c-3,4-7.8,6.4-12.8,6.4
	s-9.8-2.4-12.8-6.4l-37.6-50.1c-3.6-4.7-9.1-7.5-15-7.5C58.3,448,54.2,449.5,50.8,452.1L50.8,452.1z M160,192c0-17.7-14.3-32-32-32
	s-32,14.3-32,32s14.3,32,32,32S160,209.7,160,192z M256,224c17.7,0,32-14.3,32-32s-14.3-32-32-32s-32,14.3-32,32S238.3,224,256,224z
	"/>
</svg>
